<svg width="40" height="27" viewBox="0 0 40 27" fill="none" xmlns="http://www.w3.org/2000/svg">
<path d="M20.8898 11.8222L19.0542 9.52179L13.7642 16.1565H26.6256L22.1206 10.1917L20.8898 11.8222ZM25.7476 15.7194H14.6718L19.0544 10.2228L20.8993 12.535L22.1207 10.9172L25.7476 15.7194Z" fill="#B99C66"/>
<path d="M20.9696 11.8825L22.1205 10.3577L26.4247 16.0566H13.9717L19.0542 9.68218L20.8116 11.8846L20.8919 11.9853L20.9696 11.8825ZM22.0407 9.87241L20.8841 11.4045L19.1323 9.20905L19.0541 9.11105L18.976 9.20908L13.3618 16.2504L13.2323 16.4127H13.4399H26.9391H27.14L27.0189 16.2524L22.2003 9.87239L22.1205 9.76671L22.0407 9.87241ZM19.1325 10.1605L19.0543 10.0625L18.9761 10.1605L14.5936 15.6571L14.4641 15.8194H14.6717H25.7476H25.9484L25.8274 15.6592L22.2005 10.8569L22.1206 10.7512L22.0408 10.8569L20.8971 12.372L19.1325 10.1605ZM25.2332 15.4633H15.2035L19.0544 10.6336L20.8245 12.8521L20.9049 12.9528L20.9825 12.8499L22.1207 11.3422L25.2332 15.4633Z" fill="#B99C66" stroke="#B99C66" stroke-width="0.2"/>
<path d="M39.1576 4.60575C39.1221 3.89013 38.0852 2.87953 33.4556 2.0515C29.8886 1.41349 25.1491 1.06213 20.1103 1.06213C15.0716 1.06213 10.3321 1.41349 6.76501 2.0515C2.13545 2.87953 1.09856 3.89013 1.06306 4.60575H1.06201V22.7348H1.06429C1.06368 22.7477 1.06201 22.7605 1.06201 22.7735C1.06201 23.4911 2.05141 24.5234 6.76501 25.3665C10.3321 26.0045 15.0716 26.3558 20.1103 26.3558C25.1491 26.3558 29.8886 26.0045 33.4556 25.3665C38.1693 24.5234 39.1587 23.4911 39.1587 22.7735C39.1587 22.7605 39.157 22.7477 39.1564 22.7348H39.1587V4.60575H39.1576ZM1.54471 5.49951C3.29529 6.98208 9.3402 7.661 11.6971 7.87322V19.5447C9.3402 19.757 3.29529 20.4359 1.54471 21.9185V5.49951ZM33.3621 24.9376C29.8248 25.5703 25.1187 25.9187 20.1103 25.9187C15.102 25.9187 10.3958 25.5703 6.85854 24.9376C1.92791 24.0558 1.54471 23.0582 1.54471 22.7735C1.54471 22.2498 2.56063 21.6656 4.33199 21.1708C6.20041 20.649 8.83864 20.2305 11.9614 19.9606L12.1798 19.9417V7.47622L11.9614 7.45736C8.83864 7.18747 6.20041 6.76898 4.33199 6.24712C2.56063 5.75236 1.54471 5.16821 1.54471 4.64446C1.54471 4.35973 1.92791 3.36221 6.85854 2.48034C10.3958 1.84767 15.102 1.49926 20.1103 1.49926C25.1187 1.49926 29.8248 1.84767 33.3621 2.48034C38.2928 3.36221 38.676 4.35973 38.676 4.64446C38.676 5.16821 37.6601 5.75236 35.8888 6.24712C34.0203 6.76898 31.3821 7.18747 28.2593 7.45736L28.0409 7.47622V19.9417L28.2593 19.9606C31.3821 20.2305 34.0203 20.649 35.8888 21.1708C37.6601 21.6656 38.676 22.2498 38.676 22.7735C38.676 23.0582 38.2928 24.0558 33.3621 24.9376ZM38.676 5.49951V21.9185C36.9254 20.4359 30.8805 19.757 28.5236 19.5447V7.87322C30.8805 7.661 36.9254 6.98208 38.676 5.49951Z" fill="black"/>
<mask id="path-4-outside-1_3_5339" maskUnits="userSpaceOnUse" x="0" y="0" width="40" height="27" fill="black">
<rect fill="white" width="40" height="27"/>
<path fill-rule="evenodd" clip-rule="evenodd" d="M1.0635 4.60607C1.09901 3.89045 2.13589 2.87985 6.76545 2.05182C10.3326 1.41381 15.072 1.06245 20.1108 1.06245C25.1495 1.06245 29.889 1.41381 33.4561 2.05182C38.0857 2.87985 39.1226 3.89045 39.1581 4.60607H39.1591V22.735L39.1569 22.7351C39.1571 22.7401 39.1575 22.7451 39.1579 22.7501C39.1585 22.758 39.1591 22.7659 39.1591 22.7738C39.1591 22.7817 39.159 22.7896 39.1588 22.7976C39.137 23.514 38.1179 24.533 33.4561 25.3668C29.889 26.0048 25.1495 26.3561 20.1108 26.3561C15.072 26.3561 10.3326 26.0048 6.76545 25.3668C2.10361 24.533 1.08463 23.514 1.06282 22.7976C1.06257 22.7896 1.06245 22.7817 1.06245 22.7738C1.06245 22.7659 1.06308 22.758 1.0637 22.7501C1.0641 22.7451 1.0645 22.7401 1.06473 22.7351H1.06245V4.60607H1.0635ZM1.00033 22.7976C1.01117 23.185 1.28921 23.63 2.11661 24.0782C2.96191 24.5361 4.3954 25.0063 6.75446 25.4283C10.3263 26.0671 15.0697 26.4186 20.1108 26.4186C25.1519 26.4186 29.8953 26.0671 33.4671 25.4283C35.8261 25.0063 37.2596 24.5361 38.105 24.0782C38.9324 23.63 39.2104 23.185 39.2213 22.7976L39.2216 4.54362H39.2154C39.1703 4.16721 38.8659 3.74271 38.0591 3.31589C37.2082 2.8658 35.7841 2.40477 33.4671 1.99035C29.8953 1.35149 25.1519 1 20.1108 1C15.0697 1 10.3263 1.35149 6.75446 1.99035C4.43739 2.40477 3.01333 2.8658 2.1625 3.31589C1.35566 3.74271 1.05133 4.16721 1.00616 4.54362H1L1.00033 22.7976ZM1.54515 5.49983C1.5654 5.51698 1.58622 5.53402 1.60761 5.55095C3.43507 6.99805 9.3679 7.66377 11.6976 7.87354V19.5451C9.3679 19.7548 3.43507 20.4206 1.60761 21.8677C1.58622 21.8846 1.5654 21.9016 1.54515 21.9188V5.49983ZM1.60761 5.63004V21.7886C2.05791 21.4451 2.73029 21.1486 3.51929 20.8929C4.37248 20.6163 5.3687 20.3852 6.38241 20.1942C8.37777 19.8181 10.446 19.5962 11.6351 19.488V7.93059C10.446 7.82244 8.37777 7.60049 6.38241 7.22444C5.3687 7.03339 4.37248 6.80233 3.51929 6.52575C2.73029 6.26998 2.05791 5.97353 1.60761 5.63004ZM12.2427 19.9994L11.9672 20.0231C8.84628 20.2929 6.21235 20.7109 4.34923 21.2313C3.46587 21.478 2.77465 21.7461 2.30566 22.0158C2.07107 22.1507 1.89482 22.2844 1.77792 22.4139C1.66089 22.5435 1.60761 22.6639 1.60761 22.7738C1.60761 22.883 1.67975 23.1869 2.38339 23.5774C3.08656 23.9676 4.40705 24.436 6.86998 24.8765C10.4025 25.5083 15.1049 25.8566 20.1108 25.8566C25.1167 25.8566 29.819 25.5083 33.3516 24.8765C35.8145 24.436 37.135 23.9676 37.8382 23.5773C38.5418 23.1869 38.614 22.883 38.614 22.7738C38.614 22.6639 38.5607 22.5435 38.4437 22.4139C38.3268 22.2844 38.1505 22.1507 37.9159 22.0158C37.447 21.7461 36.7557 21.478 35.8724 21.2313C34.0092 20.7109 31.3753 20.2929 28.2544 20.0231L27.9789 19.9994V7.41924L28.2543 7.39546C31.3753 7.12572 34.0092 6.70767 35.8724 6.18728C36.7557 5.94056 37.447 5.6725 37.9159 5.40284C38.1505 5.26795 38.3268 5.13419 38.4437 5.00472C38.5607 4.8751 38.614 4.75467 38.614 4.64478C38.614 4.53565 38.5418 4.23175 37.8382 3.84126C37.135 3.45102 35.8145 2.98265 33.3516 2.54214C29.819 1.91031 25.1167 1.56203 20.1108 1.56203C15.1049 1.56203 10.4025 1.91031 6.86998 2.54214C4.40705 2.98265 3.08656 3.45102 2.38339 3.84126C1.67975 4.23175 1.60761 4.53565 1.60761 4.64478C1.60761 4.75467 1.66089 4.8751 1.77792 5.00472C1.89482 5.13419 2.07107 5.26795 2.30566 5.40284C2.77465 5.6725 3.46587 5.94056 4.34923 6.18728C6.21235 6.70767 8.84628 7.12572 11.9672 7.39546C11.9672 7.39546 11.9672 7.39546 11.9672 7.39546L12.2427 7.41924V19.9994ZM11.9619 7.45768C8.83908 7.18779 6.20085 6.7693 4.33243 6.24744C2.56107 5.75268 1.54515 5.16853 1.54515 4.64478C1.54515 4.36005 1.92835 3.36253 6.85898 2.48066C10.3962 1.84799 15.1025 1.49958 20.1108 1.49958C25.1191 1.49958 29.8253 1.84799 33.3626 2.48066C38.2932 3.36253 38.6764 4.36005 38.6764 4.64478C38.6764 5.16853 37.6605 5.75268 35.8892 6.24744C34.0207 6.7693 31.3825 7.18779 28.2597 7.45768L28.0413 7.47654V19.9421L28.2597 19.9609C31.3825 20.2308 34.0207 20.6493 35.8892 21.1712C37.6605 21.6659 38.6764 22.2501 38.6764 22.7738C38.6764 23.0586 38.2932 24.0561 33.3626 24.9379C29.8253 25.5706 25.1191 25.919 20.1108 25.919C15.1025 25.919 10.3962 25.5706 6.85898 24.9379C1.92835 24.0561 1.54515 23.0586 1.54515 22.7738C1.54515 22.2501 2.56107 21.6659 4.33243 21.1712C6.20085 20.6493 8.83908 20.2308 11.9619 19.9609L12.1803 19.9421V7.47654L11.9619 7.45768ZM38.6764 5.49983C38.6562 5.51698 38.6354 5.53402 38.614 5.55095C36.7865 6.99805 30.8537 7.66377 28.524 7.87354V19.5451C30.8537 19.7548 36.7865 20.4206 38.614 21.8677C38.6354 21.8846 38.6562 21.9016 38.6764 21.9188V5.49983ZM38.614 5.63004C38.1637 5.97353 37.4913 6.26998 36.7023 6.52575C35.8491 6.80233 34.8529 7.03339 33.8392 7.22444C31.8438 7.60049 29.7756 7.82244 28.5865 7.93059V19.488C29.7756 19.5962 31.8438 19.8181 33.8392 20.1942C34.8529 20.3852 35.8491 20.6163 36.7023 20.8929C37.4913 21.1486 38.1637 21.4451 38.614 21.7886V5.63004Z"/>
</mask>
<path fill-rule="evenodd" clip-rule="evenodd" d="M1.0635 4.60607C1.09901 3.89045 2.13589 2.87985 6.76545 2.05182C10.3326 1.41381 15.072 1.06245 20.1108 1.06245C25.1495 1.06245 29.889 1.41381 33.4561 2.05182C38.0857 2.87985 39.1226 3.89045 39.1581 4.60607H39.1591V22.735L39.1569 22.7351C39.1571 22.7401 39.1575 22.7451 39.1579 22.7501C39.1585 22.758 39.1591 22.7659 39.1591 22.7738C39.1591 22.7817 39.159 22.7896 39.1588 22.7976C39.137 23.514 38.1179 24.533 33.4561 25.3668C29.889 26.0048 25.1495 26.3561 20.1108 26.3561C15.072 26.3561 10.3326 26.0048 6.76545 25.3668C2.10361 24.533 1.08463 23.514 1.06282 22.7976C1.06257 22.7896 1.06245 22.7817 1.06245 22.7738C1.06245 22.7659 1.06308 22.758 1.0637 22.7501C1.0641 22.7451 1.0645 22.7401 1.06473 22.7351H1.06245V4.60607H1.0635ZM1.00033 22.7976C1.01117 23.185 1.28921 23.63 2.11661 24.0782C2.96191 24.5361 4.3954 25.0063 6.75446 25.4283C10.3263 26.0671 15.0697 26.4186 20.1108 26.4186C25.1519 26.4186 29.8953 26.0671 33.4671 25.4283C35.8261 25.0063 37.2596 24.5361 38.105 24.0782C38.9324 23.63 39.2104 23.185 39.2213 22.7976L39.2216 4.54362H39.2154C39.1703 4.16721 38.8659 3.74271 38.0591 3.31589C37.2082 2.8658 35.7841 2.40477 33.4671 1.99035C29.8953 1.35149 25.1519 1 20.1108 1C15.0697 1 10.3263 1.35149 6.75446 1.99035C4.43739 2.40477 3.01333 2.8658 2.1625 3.31589C1.35566 3.74271 1.05133 4.16721 1.00616 4.54362H1L1.00033 22.7976ZM1.54515 5.49983C1.5654 5.51698 1.58622 5.53402 1.60761 5.55095C3.43507 6.99805 9.3679 7.66377 11.6976 7.87354V19.5451C9.3679 19.7548 3.43507 20.4206 1.60761 21.8677C1.58622 21.8846 1.5654 21.9016 1.54515 21.9188V5.49983ZM1.60761 5.63004V21.7886C2.05791 21.4451 2.73029 21.1486 3.51929 20.8929C4.37248 20.6163 5.3687 20.3852 6.38241 20.1942C8.37777 19.8181 10.446 19.5962 11.6351 19.488V7.93059C10.446 7.82244 8.37777 7.60049 6.38241 7.22444C5.3687 7.03339 4.37248 6.80233 3.51929 6.52575C2.73029 6.26998 2.05791 5.97353 1.60761 5.63004ZM12.2427 19.9994L11.9672 20.0231C8.84628 20.2929 6.21235 20.7109 4.34923 21.2313C3.46587 21.478 2.77465 21.7461 2.30566 22.0158C2.07107 22.1507 1.89482 22.2844 1.77792 22.4139C1.66089 22.5435 1.60761 22.6639 1.60761 22.7738C1.60761 22.883 1.67975 23.1869 2.38339 23.5774C3.08656 23.9676 4.40705 24.436 6.86998 24.8765C10.4025 25.5083 15.1049 25.8566 20.1108 25.8566C25.1167 25.8566 29.819 25.5083 33.3516 24.8765C35.8145 24.436 37.135 23.9676 37.8382 23.5773C38.5418 23.1869 38.614 22.883 38.614 22.7738C38.614 22.6639 38.5607 22.5435 38.4437 22.4139C38.3268 22.2844 38.1505 22.1507 37.9159 22.0158C37.447 21.7461 36.7557 21.478 35.8724 21.2313C34.0092 20.7109 31.3753 20.2929 28.2544 20.0231L27.9789 19.9994V7.41924L28.2543 7.39546C31.3753 7.12572 34.0092 6.70767 35.8724 6.18728C36.7557 5.94056 37.447 5.6725 37.9159 5.40284C38.1505 5.26795 38.3268 5.13419 38.4437 5.00472C38.5607 4.8751 38.614 4.75467 38.614 4.64478C38.614 4.53565 38.5418 4.23175 37.8382 3.84126C37.135 3.45102 35.8145 2.98265 33.3516 2.54214C29.819 1.91031 25.1167 1.56203 20.1108 1.56203C15.1049 1.56203 10.4025 1.91031 6.86998 2.54214C4.40705 2.98265 3.08656 3.45102 2.38339 3.84126C1.67975 4.23175 1.60761 4.53565 1.60761 4.64478C1.60761 4.75467 1.66089 4.8751 1.77792 5.00472C1.89482 5.13419 2.07107 5.26795 2.30566 5.40284C2.77465 5.6725 3.46587 5.94056 4.34923 6.18728C6.21235 6.70767 8.84628 7.12572 11.9672 7.39546C11.9672 7.39546 11.9672 7.39546 11.9672 7.39546L12.2427 7.41924V19.9994ZM11.9619 7.45768C8.83908 7.18779 6.20085 6.7693 4.33243 6.24744C2.56107 5.75268 1.54515 5.16853 1.54515 4.64478C1.54515 4.36005 1.92835 3.36253 6.85898 2.48066C10.3962 1.84799 15.1025 1.49958 20.1108 1.49958C25.1191 1.49958 29.8253 1.84799 33.3626 2.48066C38.2932 3.36253 38.6764 4.36005 38.6764 4.64478C38.6764 5.16853 37.6605 5.75268 35.8892 6.24744C34.0207 6.7693 31.3825 7.18779 28.2597 7.45768L28.0413 7.47654V19.9421L28.2597 19.9609C31.3825 20.2308 34.0207 20.6493 35.8892 21.1712C37.6605 21.6659 38.6764 22.2501 38.6764 22.7738C38.6764 23.0586 38.2932 24.0561 33.3626 24.9379C29.8253 25.5706 25.1191 25.919 20.1108 25.919C15.1025 25.919 10.3962 25.5706 6.85898 24.9379C1.92835 24.0561 1.54515 23.0586 1.54515 22.7738C1.54515 22.2501 2.56107 21.6659 4.33243 21.1712C6.20085 20.6493 8.83908 20.2308 11.9619 19.9609L12.1803 19.9421V7.47654L11.9619 7.45768ZM38.6764 5.49983C38.6562 5.51698 38.6354 5.53402 38.614 5.55095C36.7865 6.99805 30.8537 7.66377 28.524 7.87354V19.5451C30.8537 19.7548 36.7865 20.4206 38.614 21.8677C38.6354 21.8846 38.6562 21.9016 38.6764 21.9188V5.49983ZM38.614 5.63004C38.1637 5.97353 37.4913 6.26998 36.7023 6.52575C35.8491 6.80233 34.8529 7.03339 33.8392 7.22444C31.8438 7.60049 29.7756 7.82244 28.5865 7.93059V19.488C29.7756 19.5962 31.8438 19.8181 33.8392 20.1942C34.8529 20.3852 35.8491 20.6163 36.7023 20.8929C37.4913 21.1486 38.1637 21.4451 38.614 21.7886V5.63004Z" fill="black"/>
<path d="M6.76545 2.05182L6.80066 2.2487L6.80067 2.2487L6.76545 2.05182ZM1.0635 4.60607V4.80607H1.25383L1.26326 4.61598L1.0635 4.60607ZM33.4561 2.05182L33.4208 2.2487V2.2487L33.4561 2.05182ZM39.1581 4.60607L38.9583 4.61598L38.9678 4.80607H39.1581V4.60607ZM39.1591 4.60607H39.3591V4.40607H39.1591V4.60607ZM39.1591 22.735L39.1685 22.9348L39.3591 22.9258V22.735H39.1591ZM39.1569 22.7351L39.1475 22.5353L38.9477 22.5447L38.9571 22.7446L39.1569 22.7351ZM39.1579 22.7501L39.3573 22.7344L39.3573 22.7343L39.1579 22.7501ZM39.1588 22.7976L38.9589 22.7915V22.7915L39.1588 22.7976ZM33.4561 25.3668L33.4208 25.1699L33.4561 25.3668ZM6.76545 25.3668L6.80067 25.1699H6.80066L6.76545 25.3668ZM1.06282 22.7976L0.862908 22.8037L1.06282 22.7976ZM1.0637 22.7501L0.864329 22.7343L0.864329 22.7343L1.0637 22.7501ZM1.06473 22.7351L1.26451 22.7445L1.27438 22.5351H1.06473V22.7351ZM1.06245 22.7351H0.862454V22.9351H1.06245V22.7351ZM1.06245 4.60607V4.40607H0.862454V4.60607H1.06245ZM1.00033 22.7976L0.800254 22.7976L0.80041 22.8032L1.00033 22.7976ZM2.11661 24.0782L2.21187 23.9023L2.11661 24.0782ZM6.75446 25.4283L6.78967 25.2314L6.78967 25.2314L6.75446 25.4283ZM33.4671 25.4283L33.4318 25.2314V25.2314L33.4671 25.4283ZM38.105 24.0782L38.2002 24.254L38.105 24.0782ZM39.2213 22.7976L39.4213 22.8032V22.7976L39.2213 22.7976ZM39.2216 4.54362L39.4216 4.54362L39.4216 4.34362H39.2216V4.54362ZM39.2154 4.54362L39.0169 4.56745L39.038 4.74362H39.2154V4.54362ZM38.0591 3.31589L38.1526 3.13911L38.0591 3.31589ZM33.4671 1.99035L33.4318 2.18722V2.18722L33.4671 1.99035ZM6.75446 1.99035L6.78967 2.18722L6.78967 2.18722L6.75446 1.99035ZM2.1625 3.31589L2.25602 3.49268H2.25602L2.1625 3.31589ZM1.00616 4.54362V4.74362H1.18359L1.20473 4.56745L1.00616 4.54362ZM1 4.54362V4.34362H0.799996L0.8 4.54362L1 4.54362ZM1.54515 5.49983L1.67441 5.34721L1.34515 5.06836V5.49983H1.54515ZM1.60761 5.55095L1.73177 5.39416L1.60761 5.55095ZM11.6976 7.87354H11.8976V7.69074L11.7155 7.67434L11.6976 7.87354ZM11.6976 19.5451L11.7155 19.7443L11.8976 19.7279V19.5451H11.6976ZM1.60761 21.8677L1.48345 21.7109L1.48345 21.7109L1.60761 21.8677ZM1.54515 21.9188H1.34515V22.3502L1.67441 22.0714L1.54515 21.9188ZM1.60761 21.7886H1.40761V22.1927L1.72891 21.9476L1.60761 21.7886ZM1.60761 5.63004L1.72891 5.47102L1.40761 5.22593V5.63004H1.60761ZM3.51929 20.8929L3.45762 20.7026L3.45762 20.7026L3.51929 20.8929ZM6.38241 20.1942L6.41945 20.3907L6.38241 20.1942ZM11.6351 19.488L11.6532 19.6872L11.8351 19.6706V19.488H11.6351ZM11.6351 7.93059H11.8351V7.74796L11.6532 7.73142L11.6351 7.93059ZM6.38241 7.22444L6.41945 7.0279L6.38241 7.22444ZM3.51929 6.52575L3.45762 6.716L3.51929 6.52575ZM12.2427 19.9994L12.2599 20.1986L12.4427 20.1828V19.9994H12.2427ZM11.9672 20.0231L11.95 19.8239L11.95 19.8239L11.9672 20.0231ZM4.34923 21.2313L4.29543 21.0387H4.29542L4.34923 21.2313ZM2.30566 22.0158L2.20597 21.8424L2.20597 21.8424L2.30566 22.0158ZM1.77792 22.4139L1.92637 22.5479H1.92637L1.77792 22.4139ZM2.38339 23.5774L2.28634 23.7522H2.28634L2.38339 23.5774ZM6.86998 24.8765L6.90519 24.6796H6.90519L6.86998 24.8765ZM33.3516 24.8765L33.3164 24.6796L33.3516 24.8765ZM37.8382 23.5773L37.7411 23.4025L37.8382 23.5773ZM38.4437 22.4139L38.5921 22.2799V22.2799L38.4437 22.4139ZM37.9159 22.0158L38.0156 21.8424L37.9159 22.0158ZM35.8724 21.2313L35.9262 21.0387H35.9262L35.8724 21.2313ZM28.2544 20.0231L28.2716 19.8239L28.2716 19.8239L28.2544 20.0231ZM27.9789 19.9994H27.7789V20.1828L27.9617 20.1986L27.9789 19.9994ZM27.9789 7.41924L27.9617 7.21998L27.7789 7.23576V7.41924H27.9789ZM28.2543 7.39546L28.2715 7.59472L28.2716 7.59472L28.2543 7.39546ZM35.8724 6.18728L35.9262 6.37991L35.9262 6.37991L35.8724 6.18728ZM38.4437 5.00472L38.5921 5.13875V5.13875L38.4437 5.00472ZM37.8382 3.84126L37.9352 3.66638V3.66638L37.8382 3.84126ZM33.3516 2.54214L33.3164 2.73902V2.73902L33.3516 2.54214ZM6.86998 2.54214L6.90519 2.73902L6.90519 2.73902L6.86998 2.54214ZM2.38339 3.84125L2.28634 3.66638L2.38339 3.84125ZM1.77792 5.00472L1.92637 4.8707L1.77792 5.00472ZM2.30566 5.40284L2.20597 5.57622H2.20597L2.30566 5.40284ZM4.34923 6.18728L4.29542 6.37991H4.29543L4.34923 6.18728ZM12.2427 7.41924H12.4427V7.23576L12.2599 7.21998L12.2427 7.41924ZM11.9619 7.45768L11.9446 7.65694L11.9447 7.65694L11.9619 7.45768ZM4.33243 6.24744L4.27862 6.44006H4.27862L4.33243 6.24744ZM6.85898 2.48066L6.8942 2.67754L6.8942 2.67754L6.85898 2.48066ZM33.3626 2.48066L33.3274 2.67754V2.67754L33.3626 2.48066ZM35.8892 6.24744L35.943 6.44006L35.943 6.44006L35.8892 6.24744ZM28.2597 7.45768L28.2769 7.65694L28.2769 7.65694L28.2597 7.45768ZM28.0413 7.47654L28.0241 7.27728L27.8413 7.29306V7.47654H28.0413ZM28.0413 19.9421H27.8413V20.1255L28.0241 20.1413L28.0413 19.9421ZM28.2597 19.9609L28.2769 19.7617L28.2769 19.7617L28.2597 19.9609ZM35.8892 21.1712L35.943 20.9785L35.943 20.9785L35.8892 21.1712ZM33.3626 24.9379L33.3274 24.7411L33.3626 24.9379ZM6.85898 24.9379L6.8942 24.7411H6.8942L6.85898 24.9379ZM4.33243 21.1712L4.27862 20.9785H4.27862L4.33243 21.1712ZM11.9619 19.9609L11.9447 19.7617L11.9446 19.7617L11.9619 19.9609ZM12.1803 19.9421L12.1975 20.1413L12.3803 20.1255V19.9421H12.1803ZM12.1803 7.47654H12.3803V7.29306L12.1975 7.27728L12.1803 7.47654ZM38.614 5.55095L38.7381 5.70775L38.7381 5.70775L38.614 5.55095ZM38.6764 5.49983H38.8764V5.06835L38.5472 5.34721L38.6764 5.49983ZM28.524 7.87354L28.5061 7.67434L28.324 7.69074V7.87354H28.524ZM28.524 19.5451H28.324V19.7279L28.5061 19.7443L28.524 19.5451ZM38.614 21.8677L38.7381 21.7109V21.7109L38.614 21.8677ZM38.6764 21.9188L38.5472 22.0714L38.8764 22.3503V21.9188H38.6764ZM36.7023 6.52575L36.764 6.716L36.764 6.716L36.7023 6.52575ZM38.614 5.63004H38.814V5.22593L38.4927 5.47102L38.614 5.63004ZM33.8392 7.22444L33.8762 7.42098L33.8392 7.22444ZM28.5865 7.93059L28.5684 7.73142L28.3865 7.74796V7.93059H28.5865ZM28.5865 19.488H28.3865V19.6706L28.5684 19.6872L28.5865 19.488ZM33.8392 20.1942L33.8762 19.9976L33.8392 20.1942ZM36.7023 20.8929L36.764 20.7026L36.764 20.7026L36.7023 20.8929ZM38.614 21.7886L38.4927 21.9476L38.814 22.1927V21.7886H38.614ZM6.73024 1.85495C4.40813 2.27027 2.96768 2.73435 2.09818 3.19431C1.23281 3.6521 0.886748 4.13258 0.86375 4.59616L1.26326 4.61598C1.27576 4.36394 1.46589 3.98131 2.28523 3.54789C3.10044 3.11664 4.49321 2.6614 6.80066 2.2487L6.73024 1.85495ZM20.1108 0.862454C15.0644 0.862454 10.3125 1.21423 6.73024 1.85495L6.80067 2.2487C10.3526 1.6134 15.0797 1.26245 20.1108 1.26245V0.862454ZM33.4913 1.85495C29.9091 1.21423 25.1571 0.862454 20.1108 0.862454V1.26245C25.1419 1.26245 29.8689 1.6134 33.4208 2.2487L33.4913 1.85495ZM39.3578 4.59616C39.3348 4.13258 38.9888 3.65209 38.1234 3.19431C37.2539 2.73435 35.8134 2.27027 33.4913 1.85495L33.4208 2.2487C35.7283 2.6614 37.1211 3.11664 37.9363 3.54789C38.7557 3.98132 38.9458 4.36394 38.9583 4.61598L39.3578 4.59616ZM39.1591 4.40607H39.1581V4.80607H39.1591V4.40607ZM39.1663 22.9349L39.1685 22.9348L39.1497 22.5352L39.1475 22.5353L39.1663 22.9349ZM39.3573 22.7343C39.3568 22.7288 39.3567 22.727 39.3566 22.7257L38.9571 22.7446C38.9575 22.7533 38.9582 22.7615 38.9585 22.766L39.3573 22.7343ZM39.3591 22.7738C39.3591 22.7567 39.3578 22.741 39.3573 22.7344L38.9585 22.7659C38.9589 22.7702 38.959 22.7721 38.9591 22.7738C38.9592 22.7752 38.9591 22.775 38.9591 22.7738H39.3591ZM39.3587 22.8037C39.359 22.7937 39.3591 22.7837 39.3591 22.7738H38.9591C38.9591 22.7797 38.959 22.7856 38.9589 22.7915L39.3587 22.8037ZM33.4913 25.5637C35.8295 25.1455 37.2739 24.6778 38.1416 24.2146C39.0056 23.7534 39.3445 23.2692 39.3587 22.8037L38.9589 22.7915C38.9512 23.0425 38.7697 23.4259 37.9533 23.8617C37.1405 24.2956 35.7445 24.7543 33.4208 25.1699L33.4913 25.5637ZM20.1108 26.5562C25.1571 26.5562 29.9091 26.2044 33.4913 25.5637L33.4208 25.1699C29.8689 25.8052 25.1419 26.1561 20.1108 26.1561V26.5562ZM6.73024 25.5637C10.3125 26.2044 15.0644 26.5562 20.1108 26.5562V26.1561C15.0797 26.1561 10.3526 25.8052 6.80067 25.1699L6.73024 25.5637ZM0.862908 22.8037C0.877082 23.2691 1.216 23.7534 2.07994 24.2146C2.94762 24.6778 4.39203 25.1455 6.73024 25.5637L6.80066 25.1699C4.47704 24.7543 3.08103 24.2956 2.26831 23.8617C1.45185 23.4259 1.27036 23.0425 1.26272 22.7915L0.862908 22.8037ZM0.862454 22.7738C0.862454 22.7837 0.862603 22.7937 0.862908 22.8037L1.26272 22.7915C1.26254 22.7856 1.26245 22.7797 1.26245 22.7738H0.862454ZM0.864329 22.7343C0.863806 22.7409 0.862454 22.7566 0.862454 22.7738H1.26245C1.26245 22.775 1.26241 22.7752 1.26249 22.7738C1.26259 22.7722 1.26274 22.7702 1.26308 22.766L0.864329 22.7343ZM0.864954 22.7257C0.864893 22.727 0.864768 22.7288 0.864329 22.7343L1.26307 22.766C1.26343 22.7615 1.2641 22.7533 1.26451 22.7445L0.864954 22.7257ZM1.06245 22.9351H1.06473V22.5351H1.06245V22.9351ZM1.0635 4.40607H1.06245V4.80607H1.0635V4.40607ZM0.80041 22.8032C0.814221 23.297 1.16973 23.7927 2.02135 24.254L2.21187 23.9023C1.4087 23.4672 1.20811 23.073 1.20025 22.792L0.80041 22.8032ZM2.02135 24.254C2.89468 24.7271 4.35295 25.2019 6.71924 25.6251L6.78967 25.2314C4.43785 24.8107 3.02914 24.345 2.21187 23.9023L2.02135 24.254ZM6.71924 25.6251C10.3062 26.2667 15.0621 26.6186 20.1108 26.6186V26.2186C15.0773 26.2186 10.3464 25.8675 6.78967 25.2314L6.71924 25.6251ZM20.1108 26.6186C25.1595 26.6186 29.9154 26.2667 33.5023 25.6251L33.4318 25.2314C29.8752 25.8675 25.1443 26.2186 20.1108 26.2186V26.6186ZM33.5023 25.6251C35.8686 25.2019 37.3269 24.7271 38.2002 24.254L38.0097 23.9023C37.1924 24.345 35.7837 24.8107 33.4318 25.2314L33.5023 25.6251ZM38.2002 24.254C39.0518 23.7927 39.4074 23.297 39.4212 22.8032L39.0213 22.792C39.0135 23.073 38.8129 23.4672 38.0097 23.9023L38.2002 24.254ZM39.2216 4.34362H39.2154V4.74362H39.2216V4.34362ZM39.414 4.51979C39.3572 4.04609 38.9812 3.57745 38.1526 3.13911L37.9655 3.49268C38.7506 3.90798 38.9834 4.28832 39.0169 4.56745L39.414 4.51979ZM38.1526 3.13911C37.2746 2.67466 35.8267 2.2092 33.5023 1.79347L33.4318 2.18722C35.7416 2.60033 37.1418 3.05695 37.9655 3.49268L38.1526 3.13911ZM33.5023 1.79347C29.9154 1.15191 25.1595 0.8 20.1108 0.8V1.2C25.1443 1.2 29.8752 1.55107 33.4318 2.18722L33.5023 1.79347ZM20.1108 0.8C15.0621 0.8 10.3062 1.15191 6.71924 1.79347L6.78967 2.18722C10.3464 1.55107 15.0773 1.2 20.1108 1.2V0.8ZM6.71924 1.79347C4.39485 2.2092 2.94695 2.67466 2.06898 3.13911L2.25602 3.49268C3.07971 3.05695 4.47993 2.60033 6.78967 2.18722L6.71924 1.79347ZM2.06898 3.13911C1.24036 3.57745 0.864425 4.04609 0.807582 4.51979L1.20473 4.56745C1.23823 4.28832 1.47097 3.90797 2.25602 3.49268L2.06898 3.13911ZM1.00616 4.34362H1V4.74362H1.00616V4.34362ZM1.4159 5.65245C1.43788 5.67107 1.46041 5.6895 1.48345 5.70775L1.73177 5.39416C1.71204 5.37854 1.69292 5.36289 1.67441 5.34721L1.4159 5.65245ZM1.48345 5.70775C1.96961 6.09272 2.7115 6.41442 3.56711 6.68551C4.42738 6.95808 5.42182 7.18527 6.42759 7.37285C8.43944 7.74807 10.5122 7.96761 11.6796 8.07273L11.7155 7.67434C10.5533 7.5697 8.49479 7.3515 6.50093 6.97963C5.50386 6.79368 4.52683 6.57 3.68792 6.30419C2.84434 6.03691 2.15934 5.73274 1.73177 5.39416L1.48345 5.70775ZM11.4976 7.87354V19.5451H11.8976V7.87354H11.4976ZM11.6796 19.3459C10.5122 19.451 8.43944 19.6705 6.42759 20.0458C5.42182 20.2333 4.42738 20.4605 3.56711 20.7331C2.7115 21.0042 1.96961 21.3259 1.48345 21.7109L1.73177 22.0244C2.15934 21.6859 2.84434 21.3817 3.68792 21.1144C4.52683 20.8486 5.50386 20.6249 6.50093 20.439C8.49479 20.0671 10.5533 19.8489 11.7155 19.7443L11.6796 19.3459ZM1.48345 21.7109C1.46041 21.7291 1.43788 21.7475 1.4159 21.7662L1.67441 22.0714C1.69292 22.0557 1.71204 22.0401 1.73177 22.0244L1.48345 21.7109ZM1.80761 21.7886V5.63004H1.40761V21.7886H1.80761ZM3.45762 20.7026C2.66197 20.9605 1.9638 21.2653 1.48631 21.6295L1.72891 21.9476C2.15202 21.6248 2.79861 21.3367 3.58097 21.0831L3.45762 20.7026ZM6.34537 19.9976C5.32723 20.1895 4.32194 20.4224 3.45762 20.7026L3.58097 21.0831C4.42302 20.8101 5.41016 20.5809 6.41945 20.3907L6.34537 19.9976ZM11.617 19.2888C10.4252 19.3972 8.34982 19.6199 6.34537 19.9976L6.41945 20.3907C8.40572 20.0164 10.4667 19.7951 11.6532 19.6872L11.617 19.2888ZM11.4351 7.93059V19.488H11.8351V7.93059H11.4351ZM6.34537 7.42098C8.34982 7.79875 10.4252 8.02138 11.617 8.12977L11.6532 7.73142C10.4667 7.6235 8.40572 7.40224 6.41945 7.0279L6.34537 7.42098ZM3.45762 6.716C4.32194 6.99619 5.32723 7.2291 6.34537 7.42098L6.41945 7.0279C5.41016 6.83768 4.42302 6.60847 3.58097 6.3355L3.45762 6.716ZM1.48631 5.78906C1.9638 6.15329 2.66197 6.45808 3.45762 6.716L3.58097 6.3355C2.79861 6.08188 2.15202 5.79378 1.72891 5.47102L1.48631 5.78906ZM4.40303 21.4239C6.24919 20.9083 8.86932 20.4916 11.9845 20.2224L11.95 19.8239C8.82324 20.0941 6.17551 20.5136 4.29543 21.0387L4.40303 21.4239ZM2.40536 22.1891C2.8538 21.9313 3.52711 21.6686 4.40303 21.4239L4.29542 21.0387C3.40463 21.2875 2.69549 21.5609 2.20597 21.8424L2.40536 22.1891ZM1.92637 22.5479C2.02396 22.4398 2.18071 22.3183 2.40536 22.1891L2.20597 21.8424C1.96143 21.983 1.76567 22.129 1.62948 22.2799L1.92637 22.5479ZM1.80761 22.7738C1.80761 22.7313 1.82826 22.6566 1.92637 22.5479L1.62948 22.2799C1.49353 22.4304 1.40761 22.5966 1.40761 22.7738H1.80761ZM2.48044 23.4025C1.80419 23.0272 1.80761 22.7767 1.80761 22.7738H1.40761C1.40761 22.9892 1.5553 23.3465 2.28634 23.7522L2.48044 23.4025ZM6.90519 24.6796C4.44989 24.2404 3.15492 23.7768 2.48044 23.4025L2.28634 23.7522C3.0182 24.1584 4.3642 24.6315 6.83477 25.0733L6.90519 24.6796ZM20.1108 25.6566C15.1124 25.6566 10.4226 25.3087 6.90519 24.6796L6.83477 25.0733C10.3824 25.7079 15.0973 26.0566 20.1108 26.0566V25.6566ZM33.3164 24.6796C29.799 25.3087 25.1092 25.6566 20.1108 25.6566V26.0566C25.1243 26.0566 29.8391 25.7079 33.3868 25.0733L33.3164 24.6796ZM37.7411 23.4025C37.0666 23.7768 35.7717 24.2404 33.3164 24.6796L33.3868 25.0733C35.8573 24.6315 37.2034 24.1584 37.9352 23.7522L37.7411 23.4025ZM38.414 22.7738C38.414 22.7767 38.4174 23.0272 37.7411 23.4025L37.9352 23.7522C38.6663 23.3465 38.814 22.9892 38.814 22.7738H38.414ZM38.2952 22.5479C38.3933 22.6566 38.414 22.7313 38.414 22.7738H38.814C38.814 22.5966 38.7281 22.4304 38.5921 22.2799L38.2952 22.5479ZM37.8162 22.1891C38.0409 22.3183 38.1976 22.4398 38.2952 22.5479L38.5921 22.2799C38.4559 22.129 38.2602 21.983 38.0156 21.8424L37.8162 22.1891ZM35.8186 21.4239C36.6945 21.6686 37.3678 21.9313 37.8162 22.1891L38.0156 21.8424C37.5261 21.5609 36.817 21.2875 35.9262 21.0387L35.8186 21.4239ZM28.2371 20.2224C31.3523 20.4916 33.9724 20.9083 35.8186 21.4239L35.9262 21.0387C34.046 20.5136 31.3984 20.0941 28.2716 19.8239L28.2371 20.2224ZM35.8186 5.99466C33.9724 6.5103 31.3523 6.92697 28.2371 7.1962L28.2716 7.59472C31.3984 7.32448 34.046 6.90503 35.9262 6.37991L35.8186 5.99466ZM37.8162 5.22946C37.3678 5.48731 36.6945 5.75001 35.8186 5.99466L35.9262 6.37991C36.817 6.13111 37.5261 5.85769 38.0156 5.57622L37.8162 5.22946ZM38.2952 4.8707C38.1976 4.97879 38.0409 5.10029 37.8162 5.22946L38.0156 5.57622C38.2602 5.43561 38.4559 5.2896 38.5921 5.13875L38.2952 4.8707ZM38.414 4.64478C38.414 4.68735 38.3933 4.76203 38.2952 4.8707L38.5921 5.13875C38.7281 4.98817 38.814 4.82199 38.814 4.64478H38.414ZM37.7411 4.01613C38.4174 4.39142 38.414 4.64192 38.414 4.64478H38.814C38.814 4.42938 38.6663 4.07207 37.9352 3.66638L37.7411 4.01613ZM33.3164 2.73902C35.7717 3.17816 37.0666 3.64182 37.7411 4.01613L37.9352 3.66638C37.2034 3.26023 35.8573 2.78714 33.3868 2.34527L33.3164 2.73902ZM20.1108 1.76203C25.1092 1.76203 29.799 2.1099 33.3164 2.73902L33.3868 2.34527C29.8391 1.71073 25.1243 1.36203 20.1108 1.36203V1.76203ZM6.90519 2.73902C10.4226 2.1099 15.1124 1.76203 20.1108 1.76203V1.36203C15.0973 1.36203 10.3824 1.71073 6.83477 2.34527L6.90519 2.73902ZM2.48044 4.01613C3.15492 3.64182 4.44989 3.17816 6.90519 2.73902L6.83477 2.34527C4.3642 2.78714 3.0182 3.26023 2.28634 3.66638L2.48044 4.01613ZM1.80761 4.64478C1.80761 4.64191 1.80419 4.39142 2.48044 4.01613L2.28634 3.66638C1.5553 4.07208 1.40761 4.42938 1.40761 4.64478H1.80761ZM1.92637 4.8707C1.82826 4.76203 1.80761 4.68735 1.80761 4.64478H1.40761C1.40761 4.82199 1.49353 4.98817 1.62948 5.13875L1.92637 4.8707ZM2.40536 5.22946C2.18071 5.10028 2.02396 4.97879 1.92637 4.8707L1.62948 5.13875C1.76567 5.2896 1.96143 5.43561 2.20597 5.57622L2.40536 5.22946ZM4.40303 5.99466C3.52711 5.75001 2.8538 5.48731 2.40536 5.22946L2.20597 5.57622C2.69549 5.85769 3.40463 6.13111 4.29542 6.37991L4.40303 5.99466ZM11.9845 7.1962C8.86932 6.92697 6.24919 6.5103 4.40303 5.99466L4.29543 6.37991C6.17551 6.90503 8.82323 7.32448 11.95 7.59472L11.9845 7.1962ZM11.9672 7.19546C11.9672 7.39546 11.9672 7.59546 11.9672 7.59546H11.9672C11.9672 7.59546 11.9672 7.39546 11.9672 7.19546C11.9672 7.19546 11.9672 7.19546 11.9672 7.19546V7.59546C11.9672 7.59546 11.9672 7.59546 11.9672 7.59546C11.9672 7.39546 11.9672 7.19546 11.9672 7.19546H11.9672C11.9672 7.19546 11.9672 7.39546 11.9672 7.59546V7.19546ZM11.9791 7.25843C8.86213 6.98903 6.23769 6.57193 4.38623 6.05481L4.27862 6.44006C6.16401 6.96666 8.81604 7.38654 11.9446 7.65694L11.9791 7.25843ZM4.38623 6.05481C3.50799 5.80951 2.82909 5.54514 2.37423 5.2836C2.14647 5.15264 1.98364 5.02732 1.88002 4.91255C1.77596 4.79729 1.74515 4.70833 1.74515 4.64478H1.34515C1.34515 4.8431 1.44134 5.02357 1.58312 5.1806C1.72534 5.33813 1.92719 5.48797 2.17484 5.63036C2.67077 5.91552 3.38551 6.19061 4.27862 6.44006L4.38623 6.05481ZM1.74515 4.64478C1.74515 4.60884 1.76518 4.34164 2.45013 3.96152C3.13357 3.58224 4.43652 3.11711 6.8942 2.67754L6.82377 2.28379C4.35082 2.72609 2.99685 3.20065 2.25603 3.61177C1.51672 4.02206 1.34515 4.39599 1.34515 4.64478H1.74515ZM6.8942 2.67754C10.4163 2.04757 15.1101 1.69958 20.1108 1.69958V1.29958C15.0949 1.29958 10.3762 1.6484 6.82377 2.28379L6.8942 2.67754ZM20.1108 1.69958C25.1115 1.69958 29.8052 2.04757 33.3274 2.67754L33.3978 2.28379C29.8453 1.6484 25.1267 1.29958 20.1108 1.29958V1.69958ZM33.3274 2.67754C35.785 3.11711 37.088 3.58224 37.7714 3.96152C38.4564 4.34165 38.4764 4.60884 38.4764 4.64478H38.8764C38.8764 4.39598 38.7049 4.02206 37.9655 3.61177C37.2247 3.20065 35.8707 2.72609 33.3978 2.28379L33.3274 2.67754ZM38.4764 4.64478C38.4764 4.70833 38.4456 4.79729 38.3416 4.91255C38.238 5.02732 38.0751 5.15264 37.8474 5.2836C37.3925 5.54514 36.7136 5.80951 35.8354 6.05481L35.943 6.44006C36.8361 6.19061 37.5508 5.91552 38.0468 5.63036C38.2944 5.48797 38.4963 5.33813 38.6385 5.1806C38.7803 5.02357 38.8764 4.8431 38.8764 4.64478H38.4764ZM35.8354 6.05481C33.9839 6.57194 31.3595 6.98903 28.2425 7.25843L28.2769 7.65694C31.4056 7.38654 34.0575 6.96666 35.943 6.44006L35.8354 6.05481ZM28.2425 7.25842L28.0241 7.27728L28.0585 7.6758L28.2769 7.65694L28.2425 7.25842ZM27.8413 7.47654V19.9421H28.2413V7.47654H27.8413ZM28.0241 20.1413L28.2425 20.1602L28.2769 19.7617L28.0585 19.7428L28.0241 20.1413ZM28.2425 20.1602C31.3595 20.4296 33.9839 20.8467 35.8354 21.3638L35.943 20.9785C34.0575 20.4519 31.4056 20.0321 28.2769 19.7617L28.2425 20.1602ZM35.8354 21.3638C36.7136 21.6091 37.3925 21.8735 37.8474 22.135C38.0751 22.266 38.238 22.3913 38.3416 22.5061C38.4456 22.6213 38.4764 22.7103 38.4764 22.7738H38.8764C38.8764 22.5755 38.7803 22.395 38.6385 22.238C38.4963 22.0805 38.2944 21.9306 38.0468 21.7882C37.5508 21.5031 36.8361 21.228 35.943 20.9785L35.8354 21.3638ZM38.4764 22.7738C38.4764 22.8098 38.4564 23.077 37.7714 23.4571C37.088 23.8364 35.785 24.3015 33.3274 24.7411L33.3978 25.1348C35.8707 24.6925 37.2247 24.218 37.9655 23.8068C38.7049 23.3965 38.8764 23.0226 38.8764 22.7738H38.4764ZM33.3274 24.7411C29.8052 25.371 25.1115 25.719 20.1108 25.719V26.119C25.1267 26.119 29.8453 25.7702 33.3978 25.1348L33.3274 24.7411ZM20.1108 25.719C15.1101 25.719 10.4163 25.371 6.8942 24.7411L6.82377 25.1348C10.3762 25.7702 15.0949 26.119 20.1108 26.119V25.719ZM6.8942 24.7411C4.43652 24.3015 3.13357 23.8364 2.45013 23.4571C1.76518 23.077 1.74515 22.8098 1.74515 22.7738H1.34515C1.34515 23.0226 1.51672 23.3965 2.25603 23.8068C2.99685 24.218 4.35082 24.6925 6.82377 25.1348L6.8942 24.7411ZM1.74515 22.7738C1.74515 22.7103 1.77596 22.6213 1.88002 22.5061C1.98364 22.3913 2.14647 22.266 2.37423 22.135C2.82909 21.8735 3.50799 21.6091 4.38623 21.3638L4.27862 20.9785C3.38551 21.228 2.67077 21.5031 2.17484 21.7882C1.92719 21.9306 1.72534 22.0805 1.58312 22.238C1.44134 22.395 1.34515 22.5755 1.34515 22.7738H1.74515ZM4.38623 21.3638C6.23769 20.8467 8.86213 20.4296 11.9791 20.1602L11.9446 19.7617C8.81604 20.0321 6.16401 20.4519 4.27862 20.9785L4.38623 21.3638ZM11.9791 20.1602L12.1975 20.1413L12.1631 19.7428L11.9447 19.7617L11.9791 20.1602ZM12.3803 19.9421V7.47654H11.9803V19.9421H12.3803ZM12.1975 7.27728L11.9791 7.25842L11.9447 7.65694L12.1631 7.6758L12.1975 7.27728ZM38.7381 5.70775C38.7612 5.6895 38.7837 5.67107 38.8057 5.65245L38.5472 5.34721C38.5287 5.36289 38.5096 5.37854 38.4898 5.39416L38.7381 5.70775ZM28.542 8.07273C29.7094 7.96761 31.7822 7.74807 33.794 7.37285C34.7998 7.18527 35.7942 6.95808 36.6545 6.68551C37.5101 6.41442 38.252 6.09272 38.7381 5.70775L38.4898 5.39416C38.0623 5.73274 37.3773 6.03691 36.5337 6.30419C35.6948 6.56999 34.7177 6.79368 33.7207 6.97963C31.7268 7.3515 29.6683 7.5697 28.5061 7.67434L28.542 8.07273ZM28.724 19.5451V7.87354H28.324V19.5451H28.724ZM38.7381 21.7109C38.252 21.3259 37.5101 21.0042 36.6545 20.7331C35.7942 20.4605 34.7998 20.2333 33.794 20.0458C31.7822 19.6705 29.7094 19.451 28.542 19.3459L28.5061 19.7443C29.6683 19.8489 31.7268 20.0671 33.7207 20.439C34.7177 20.6249 35.6948 20.8486 36.5337 21.1144C37.3773 21.3817 38.0623 21.6859 38.4898 22.0244L38.7381 21.7109ZM38.8057 21.7662C38.7837 21.7475 38.7612 21.7291 38.7381 21.7109L38.4898 22.0244C38.5096 22.0401 38.5287 22.0557 38.5472 22.0714L38.8057 21.7662ZM36.764 6.716C37.5596 6.45808 38.2578 6.15329 38.7353 5.78906L38.4927 5.47102C38.0696 5.79378 37.423 6.08188 36.6406 6.3355L36.764 6.716ZM33.8762 7.42098C34.8944 7.2291 35.8997 6.99619 36.764 6.716L36.6406 6.3355C35.7986 6.60847 34.8114 6.83768 33.8021 7.0279L33.8762 7.42098ZM28.6046 8.12977C29.7964 8.02138 31.8718 7.79875 33.8762 7.42098L33.8021 7.0279C31.8159 7.40224 29.7549 7.6235 28.5684 7.73142L28.6046 8.12977ZM28.7865 19.488V7.93059H28.3865V19.488H28.7865ZM33.8762 19.9976C31.8718 19.6199 29.7964 19.3972 28.6046 19.2888L28.5684 19.6872C29.7549 19.7951 31.8159 20.0164 33.8021 20.3907L33.8762 19.9976ZM36.764 20.7026C35.8997 20.4224 34.8944 20.1895 33.8762 19.9976L33.8021 20.3907C34.8114 20.5809 35.7986 20.8101 36.6406 21.0831L36.764 20.7026ZM38.7353 21.6295C38.2578 21.2653 37.5596 20.9605 36.764 20.7026L36.6406 21.0831C37.423 21.3367 38.0696 21.6248 38.4927 21.9476L38.7353 21.6295ZM38.414 5.63004V21.7886H38.814V5.63004H38.414ZM39.3591 22.735V4.60607H38.9591V22.735H39.3591ZM0.862454 4.60607V22.7351H1.26245V4.60607H0.862454ZM39.4213 22.7976L39.4216 4.54362L39.0216 4.54362L39.0213 22.7976L39.4213 22.7976ZM0.8 4.54362L0.800332 22.7976L1.20033 22.7976L1.2 4.54362L0.8 4.54362ZM1.74515 21.9188V5.49983H1.34515V21.9188H1.74515ZM11.9844 20.2224L12.2599 20.1986L12.2255 19.8001L11.95 19.8239L11.9844 20.2224ZM27.9617 20.1986L28.2372 20.2224L28.2716 19.8239L27.9961 19.8001L27.9617 20.1986ZM27.7789 7.41924V19.9994H28.1789V7.41924H27.7789ZM28.2371 7.1962L27.9617 7.21998L27.9961 7.6185L28.2715 7.59472L28.2371 7.1962ZM12.2599 7.21998L11.9844 7.1962L11.95 7.59472L12.2255 7.6185L12.2599 7.21998ZM12.4427 19.9994V7.41924H12.0427V19.9994H12.4427ZM38.4764 5.49983V21.9188H38.8764V5.49983H38.4764Z" fill="black" mask="url(#path-4-outside-1_3_5339)"/>
</svg>
