<svg width="23" height="22" viewBox="0 0 23 22" fill="none" xmlns="http://www.w3.org/2000/svg">
<g opacity="0.35">
<path d="M19.0176 2.40601H3.20508C2.8248 2.40601 2.51758 2.71323 2.51758 3.09351V18.906C2.51758 19.2863 2.8248 19.5935 3.20508 19.5935H19.0176C19.3979 19.5935 19.7051 19.2863 19.7051 18.906V3.09351C19.7051 2.71323 19.3979 2.40601 19.0176 2.40601ZM18.3301 18.2185H14.3748V12.9376H16.6092L16.9443 10.3445H14.3748V8.68804C14.3748 7.93608 14.5832 7.42476 15.6596 7.42476H17.0324V5.10444C16.7939 5.07222 15.9797 5.00132 15.0301 5.00132C13.0492 5.00132 11.6936 6.21089 11.6936 8.43022V10.3423H9.45488V12.9355H11.6957V18.2185H3.89258V3.78101H18.3301V18.2185Z" fill="white"/>
</g>
</svg>
