<svg width="23" height="22" viewBox="0 0 23 22" fill="none" xmlns="http://www.w3.org/2000/svg">
<g opacity="0.35">
<path d="M11.6659 6.59434C9.2274 6.59434 7.25943 8.56231 7.25943 11.0008C7.25943 13.4393 9.2274 15.4072 11.6659 15.4072C14.1043 15.4072 16.0723 13.4393 16.0723 11.0008C16.0723 8.56231 14.1043 6.59434 11.6659 6.59434ZM11.6659 13.8647C10.0889 13.8647 8.80201 12.5777 8.80201 11.0008C8.80201 9.42383 10.0889 8.13692 11.6659 8.13692C13.2428 8.13692 14.5297 9.42383 14.5297 11.0008C14.5297 12.5777 13.2428 13.8647 11.6659 13.8647ZM16.2528 5.38692C15.6835 5.38692 15.2237 5.84668 15.2237 6.41602C15.2237 6.98536 15.6835 7.44512 16.2528 7.44512C16.8221 7.44512 17.2819 6.9875 17.2819 6.41602C17.2821 6.28083 17.2556 6.14693 17.2039 6.022C17.1522 5.89707 17.0764 5.78355 16.9809 5.68796C16.8853 5.59236 16.7717 5.51657 16.6468 5.46491C16.5219 5.41325 16.388 5.38675 16.2528 5.38692V5.38692ZM20.2553 11.0008C20.2553 9.81485 20.2661 8.63965 20.1995 7.45586C20.1329 6.08086 19.8192 4.86055 18.8137 3.85508C17.8061 2.84747 16.5879 2.53594 15.2129 2.46934C14.027 2.40274 12.8518 2.41348 11.668 2.41348C10.4821 2.41348 9.30689 2.40274 8.1231 2.46934C6.7481 2.53594 5.52779 2.84961 4.52232 3.85508C3.5147 4.8627 3.20318 6.08086 3.13658 7.45586C3.06997 8.6418 3.08072 9.817 3.08072 11.0008C3.08072 12.1846 3.06997 13.3619 3.13658 14.5457C3.20318 15.9207 3.51685 17.141 4.52232 18.1465C5.52994 19.1541 6.7481 19.4656 8.1231 19.5322C9.30904 19.5988 10.4842 19.5881 11.668 19.5881C12.854 19.5881 14.0292 19.5988 15.2129 19.5322C16.5879 19.4656 17.8083 19.152 18.8137 18.1465C19.8213 17.1389 20.1329 15.9207 20.1995 14.5457C20.2682 13.3619 20.2553 12.1867 20.2553 11.0008V11.0008ZM18.3647 16.0668C18.2079 16.4578 18.0188 16.75 17.7159 17.0508C17.4129 17.3537 17.1229 17.5428 16.7319 17.6996C15.6018 18.1486 12.9184 18.0477 11.6659 18.0477C10.4133 18.0477 7.72779 18.1486 6.59771 17.7018C6.20669 17.5449 5.91451 17.3559 5.61373 17.0529C5.3108 16.75 5.12173 16.46 4.9649 16.069C4.51802 14.9367 4.619 12.2533 4.619 11.0008C4.619 9.74825 4.51802 7.0627 4.9649 5.93262C5.12173 5.54161 5.3108 5.24942 5.61373 4.94864C5.91665 4.64786 6.20669 4.45665 6.59771 4.29981C7.72779 3.85293 10.4133 3.95391 11.6659 3.95391C12.9184 3.95391 15.604 3.85293 16.734 4.29981C17.1251 4.45665 17.4172 4.64571 17.718 4.94864C18.021 5.25157 18.21 5.54161 18.3669 5.93262C18.8137 7.0627 18.7127 9.74825 18.7127 11.0008C18.7127 12.2533 18.8137 14.9367 18.3647 16.0668Z" fill="white"/>
</g>
</svg>
