<svg width="34" height="35" viewBox="0 0 34 35" fill="none" xmlns="http://www.w3.org/2000/svg">
<path fill-rule="evenodd" clip-rule="evenodd" d="M2.1416 29.9601H2.62345V24.1779H2.1416V2.0127H5.51456V2.49455H12.2605V2.0127H17.5609V2.49455H28.6435V2.0127H32.9801V32.8512H22.3794V32.3694H17.079V32.8512H2.1416V29.9601ZM32.4983 32.3694V26.5871H26.2342V29.4783H25.7523V26.1053H32.4983V21.7686H26.2342V24.1779H25.7523V21.2868H32.4983V16.9501H28.6435V16.4683H32.4983V2.49455H14.6697V16.4683H22.8612V16.9501H14.1879V2.49455H2.62345V21.7686H10.8149V22.2505H2.62345V32.3694H14.1879V21.7686H14.6697V32.3694H32.4983Z" fill="black"/>
<mask id="path-2-outside-1_3_5350" maskUnits="userSpaceOnUse" x="1.06592" y="0.936951" width="33" height="33" fill="black">
<rect fill="white" x="1.06592" y="0.936951" width="33" height="33"/>
<path fill-rule="evenodd" clip-rule="evenodd" d="M2.06592 29.8844H2.54777V24.2544H2.06592V1.93695H5.59117V2.4188H12.1848V1.93695H17.6375V2.4188H28.5678V1.93695H33.0567V32.9278H22.3037V32.4459H17.1556V32.9278H2.06592V29.8844ZM17.0795 32.3698H14.6702V21.769H14.1884V32.3698H2.62391V29.9605H2.14206V32.8516H17.0795V32.3698ZM2.70006 32.2936H14.1122V21.6929H14.7464V32.2936H32.4226V26.6637H26.3108V29.5548H25.6767V26.0295H32.4226V21.8452H26.3108V24.2544H25.6767V21.211H32.4226V17.0266H28.5678V16.3925H32.4226V2.57109H14.7464V16.3925H22.9378V17.0266H14.1122V2.57109H2.70006V21.6929H10.8915V22.327H2.70006V32.2936ZM2.62391 22.2509H10.8154V21.769H2.62391V2.49495H5.51503V2.0131H2.14206V24.1783H2.62391V22.2509ZM14.1884 2.49495V16.9505H22.8617V16.4687H14.6702V2.49495H17.5613V2.0131H12.261V2.49495H14.1884ZM32.4987 2.49495V16.4687H28.6439V16.9505H32.4987V21.2872H25.7528V24.1783H26.2347V21.769H32.4987V26.1057H25.7528V29.4786H26.2347V26.5875H32.4987V32.3698H22.3798V32.8516H32.9806V2.0131H28.6439V2.49495H32.4987Z"/>
</mask>
<path fill-rule="evenodd" clip-rule="evenodd" d="M2.06592 29.8844H2.54777V24.2544H2.06592V1.93695H5.59117V2.4188H12.1848V1.93695H17.6375V2.4188H28.5678V1.93695H33.0567V32.9278H22.3037V32.4459H17.1556V32.9278H2.06592V29.8844ZM17.0795 32.3698H14.6702V21.769H14.1884V32.3698H2.62391V29.9605H2.14206V32.8516H17.0795V32.3698ZM2.70006 32.2936H14.1122V21.6929H14.7464V32.2936H32.4226V26.6637H26.3108V29.5548H25.6767V26.0295H32.4226V21.8452H26.3108V24.2544H25.6767V21.211H32.4226V17.0266H28.5678V16.3925H32.4226V2.57109H14.7464V16.3925H22.9378V17.0266H14.1122V2.57109H2.70006V21.6929H10.8915V22.327H2.70006V32.2936ZM2.62391 22.2509H10.8154V21.769H2.62391V2.49495H5.51503V2.0131H2.14206V24.1783H2.62391V22.2509ZM14.1884 2.49495V16.9505H22.8617V16.4687H14.6702V2.49495H17.5613V2.0131H12.261V2.49495H14.1884ZM32.4987 2.49495V16.4687H28.6439V16.9505H32.4987V21.2872H25.7528V24.1783H26.2347V21.769H32.4987V26.1057H25.7528V29.4786H26.2347V26.5875H32.4987V32.3698H22.3798V32.8516H32.9806V2.0131H28.6439V2.49495H32.4987Z" fill="black"/>
<path fill-rule="evenodd" clip-rule="evenodd" d="M2.06592 29.8844H2.54777V24.2544H2.06592V1.93695H5.59117V2.4188H12.1848V1.93695H17.6375V2.4188H28.5678V1.93695H33.0567V32.9278H22.3037V32.4459H17.1556V32.9278H2.06592V29.8844ZM17.0795 32.3698H14.6702V21.769H14.1884V32.3698H2.62391V29.9605H2.14206V32.8516H17.0795V32.3698ZM2.70006 32.2936H14.1122V21.6929H14.7464V32.2936H32.4226V26.6637H26.3108V29.5548H25.6767V26.0295H32.4226V21.8452H26.3108V24.2544H25.6767V21.211H32.4226V17.0266H28.5678V16.3925H32.4226V2.57109H14.7464V16.3925H22.9378V17.0266H14.1122V2.57109H2.70006V21.6929H10.8915V22.327H2.70006V32.2936ZM2.62391 22.2509H10.8154V21.769H2.62391V2.49495H5.51503V2.0131H2.14206V24.1783H2.62391V22.2509ZM14.1884 2.49495V16.9505H22.8617V16.4687H14.6702V2.49495H17.5613V2.0131H12.261V2.49495H14.1884ZM32.4987 2.49495V16.4687H28.6439V16.9505H32.4987V21.2872H25.7528V24.1783H26.2347V21.769H32.4987V26.1057H25.7528V29.4786H26.2347V26.5875H32.4987V32.3698H22.3798V32.8516H32.9806V2.0131H28.6439V2.49495H32.4987Z" stroke="black" stroke-width="0.4" mask="url(#path-2-outside-1_3_5350)"/>
<path fill-rule="evenodd" clip-rule="evenodd" d="M18.1326 1.25157C18.1326 1.0413 18.303 0.87085 18.5133 0.87085H27.5522C27.7624 0.87085 27.9329 1.0413 27.9329 1.25157C27.9329 1.46184 27.7624 1.63229 27.5522 1.63229H18.5133C18.303 1.63229 18.1326 1.46184 18.1326 1.25157Z" fill="#B99C66" stroke="#B99C66" stroke-width="0.2" stroke-linecap="round"/>
<path fill-rule="evenodd" clip-rule="evenodd" d="M22.7012 33.6131C22.7012 33.8234 22.5307 33.9938 22.3204 33.9938L17.1807 33.9938C16.9704 33.9938 16.8 33.8234 16.8 33.6131C16.8 33.4028 16.9704 33.2324 17.1807 33.2324L22.3204 33.2324C22.5307 33.2324 22.7012 33.4028 22.7012 33.6131ZM1.38072 24.4758C1.59099 24.4758 1.76144 24.6462 1.76144 24.8565L1.76144 29.1101C1.76144 29.3203 1.59099 29.4908 1.38072 29.4908C1.17045 29.4908 0.999996 29.3203 0.999996 29.1101L0.999996 24.8565C0.999996 24.6462 1.17045 24.4758 1.38072 24.4758Z" fill="#B99C66" stroke="#B99C66" stroke-width="0.2" stroke-linecap="round"/>
</svg>
