<svg width="23" height="22" viewBox="0 0 23 22" fill="none" xmlns="http://www.w3.org/2000/svg">
<g opacity="0.35">
<path d="M18.4345 2.40601H4.00986C3.24717 2.40601 2.62842 3.02476 2.62842 3.78745V18.2121C2.62842 18.9748 3.24717 19.5935 4.00986 19.5935H18.4345C19.1972 19.5935 19.8159 18.9748 19.8159 18.2121V3.78745C19.8159 3.02476 19.1972 2.40601 18.4345 2.40601V2.40601ZM18.4345 18.2185C8.81377 18.2164 4.00342 18.2142 4.00342 18.2121C4.00557 8.59136 4.00771 3.78101 4.00986 3.78101C13.6306 3.78315 18.4409 3.7853 18.4409 3.78745C18.4388 13.4082 18.4366 18.2185 18.4345 18.2185ZM5.17646 8.84917H7.72666V17.0519H5.17646V8.84917ZM6.45264 7.72769C7.26689 7.72769 7.93076 7.06597 7.93076 6.24956C7.93076 6.05545 7.89253 5.86324 7.81825 5.68391C7.74396 5.50457 7.63509 5.34162 7.49783 5.20437C7.36057 5.06711 7.19762 4.95823 7.01829 4.88395C6.83896 4.80967 6.64675 4.77144 6.45264 4.77144C6.25853 4.77144 6.06632 4.80967 5.88698 4.88395C5.70765 4.95823 5.5447 5.06711 5.40744 5.20437C5.27019 5.34162 5.16131 5.50457 5.08703 5.68391C5.01274 5.86324 4.97451 6.05545 4.97451 6.24956C4.97236 7.06597 5.63408 7.72769 6.45264 7.72769ZM11.8731 12.9935C11.8731 11.9236 12.0772 10.888 13.4028 10.888C14.7091 10.888 14.7284 12.1105 14.7284 13.0623V17.0519H17.2765V12.5531C17.2765 10.3445 16.7995 8.64507 14.2192 8.64507C12.9796 8.64507 12.1481 9.32612 11.8065 9.97065H11.7722V8.84917H9.3251V17.0519H11.8731V12.9935Z" fill="white"/>
</g>
</svg>
