<svg width="119" height="39" viewBox="0 0 119 39" fill="none" xmlns="http://www.w3.org/2000/svg">
<path d="M6.46373 22.2796V31H2.38562V7.53069H11.3639C13.9859 7.53069 16.0653 8.21306 17.602 9.5778C19.1494 10.9425 19.9231 12.7479 19.9231 14.9938C19.9231 17.2934 19.1655 19.0827 17.6503 20.3614C16.1459 21.6402 14.0343 22.2796 11.3156 22.2796H6.46373ZM6.46373 19.0074H11.3639C12.8146 19.0074 13.9215 18.6689 14.6844 17.9919C15.4474 17.3042 15.8289 16.3156 15.8289 15.026C15.8289 13.758 15.442 12.7479 14.6683 11.9957C13.8946 11.2327 12.8308 10.8405 11.4768 10.819H6.46373V19.0074ZM34.1756 31C34.0036 30.6669 33.8532 30.1242 33.7242 29.372C32.4777 30.6722 30.9518 31.3224 29.1464 31.3224C27.3948 31.3224 25.9656 30.8227 24.8588 29.8233C23.7519 28.8239 23.1985 27.5881 23.1985 26.1159C23.1985 24.2569 23.8863 22.833 25.2618 21.8444C26.648 20.845 28.6253 20.3453 31.1936 20.3453H33.5953V19.2009C33.5953 18.2982 33.3428 17.5782 32.8377 17.0409C32.3326 16.4929 31.5643 16.2188 30.5327 16.2188C29.6408 16.2188 28.91 16.4445 28.3405 16.8958C27.7709 17.3364 27.4862 17.9006 27.4862 18.5883H23.5693C23.5693 17.6319 23.8863 16.74 24.5203 15.9126C25.1543 15.0744 26.014 14.4189 27.0993 13.9461C28.1954 13.4732 29.4151 13.2368 30.7583 13.2368C32.8001 13.2368 34.4281 13.7526 35.6424 14.7843C36.8567 15.8051 37.48 17.2451 37.5122 19.1042V26.9702C37.5122 28.5392 37.7325 29.7911 38.1731 30.726V31H34.1756ZM29.8718 28.1792C30.6455 28.1792 31.3709 27.9911 32.0479 27.615C32.7356 27.2389 33.2514 26.7338 33.5953 26.0998V22.8115H31.4837C30.033 22.8115 28.9423 23.0641 28.2115 23.5691C27.4808 24.0742 27.1154 24.7888 27.1154 25.713C27.1154 26.4652 27.3626 27.067 27.8569 27.5183C28.362 27.9589 29.0336 28.1792 29.8718 28.1792ZM49.6047 28.1953C50.5826 28.1953 51.3939 27.9105 52.0387 27.341C52.6835 26.7714 53.0273 26.0676 53.0703 25.2294H56.7616C56.7186 26.3147 56.3801 27.3302 55.7461 28.2759C55.1121 29.2108 54.2524 29.9523 53.167 30.5003C52.0817 31.0484 50.9104 31.3224 49.6531 31.3224C47.2137 31.3224 45.2794 30.5325 43.8502 28.9529C42.421 27.3732 41.7064 25.1918 41.7064 22.4086V22.0056C41.7064 19.3513 42.4156 17.229 43.8341 15.6386C45.2526 14.0374 47.1869 13.2368 49.637 13.2368C51.7109 13.2368 53.3981 13.844 54.6983 15.0583C56.0093 16.2618 56.6971 17.8469 56.7616 19.8134H53.0703C53.0273 18.814 52.6835 17.9919 52.0387 17.3472C51.4047 16.7024 50.5934 16.38 49.6047 16.38C48.3367 16.38 47.3588 16.8421 46.6711 17.7663C45.9833 18.6797 45.6341 20.0713 45.6233 21.9411V22.5697C45.6233 24.461 45.9618 25.8741 46.6388 26.8091C47.3266 27.7332 48.3152 28.1953 49.6047 28.1953ZM70.9657 31C70.7937 30.6669 70.6433 30.1242 70.5143 29.372C69.2678 30.6722 67.7419 31.3224 65.9365 31.3224C64.1849 31.3224 62.7557 30.8227 61.6489 29.8233C60.542 28.8239 59.9886 27.5881 59.9886 26.1159C59.9886 24.2569 60.6763 22.833 62.0518 21.8444C63.4381 20.845 65.4153 20.3453 67.9836 20.3453H70.3854V19.2009C70.3854 18.2982 70.1328 17.5782 69.6278 17.0409C69.1227 16.4929 68.3544 16.2188 67.3228 16.2188C66.4308 16.2188 65.7001 16.4445 65.1306 16.8958C64.561 17.3364 64.2763 17.9006 64.2763 18.5883H60.3593C60.3593 17.6319 60.6763 16.74 61.3104 15.9126C61.9444 15.0744 62.8041 14.4189 63.8894 13.9461C64.9855 13.4732 66.2052 13.2368 67.5484 13.2368C69.5902 13.2368 71.2182 13.7526 72.4325 14.7843C73.6468 15.8051 74.2701 17.2451 74.3023 19.1042V26.9702C74.3023 28.5392 74.5226 29.7911 74.9632 30.726V31H70.9657ZM66.6619 28.1792C67.4356 28.1792 68.161 27.9911 68.838 27.615C69.5257 27.2389 70.0415 26.7338 70.3854 26.0998V22.8115H68.2738C66.8231 22.8115 65.7324 23.0641 65.0016 23.5691C64.2709 24.0742 63.9055 24.7888 63.9055 25.713C63.9055 26.4652 64.1527 27.067 64.647 27.5183C65.1521 27.9589 65.8237 28.1792 66.6619 28.1792ZM89.0061 26.261C89.0061 25.5625 88.7159 25.0306 88.1357 24.6652C87.5661 24.2999 86.6151 23.9775 85.2826 23.6981C83.9501 23.4187 82.8379 23.0641 81.946 22.6342C79.9902 21.6886 79.0123 20.3185 79.0123 18.5239C79.0123 17.0194 79.6463 15.7621 80.9143 14.752C82.1824 13.7419 83.7943 13.2368 85.75 13.2368C87.8348 13.2368 89.5165 13.7526 90.7953 14.7843C92.0848 15.8159 92.7296 17.1537 92.7296 18.7979H88.8127C88.8127 18.0457 88.5333 17.4224 87.9745 16.9281C87.4157 16.423 86.6742 16.1705 85.75 16.1705C84.8904 16.1705 84.1865 16.3693 83.6385 16.7669C83.1012 17.1645 82.8325 17.6964 82.8325 18.3627C82.8325 18.9645 83.085 19.4319 83.5901 19.765C84.0952 20.0982 85.116 20.4367 86.6527 20.7805C88.1894 21.1137 89.3929 21.5166 90.2634 21.9895C91.1445 22.4515 91.7947 23.0103 92.2138 23.6658C92.6436 24.3213 92.8585 25.1166 92.8585 26.0515C92.8585 27.6204 92.2084 28.8938 90.9081 29.8717C89.6079 30.8388 87.9046 31.3224 85.7984 31.3224C84.3692 31.3224 83.0958 31.0645 81.9782 30.5487C80.8606 30.0329 79.9902 29.3236 79.3669 28.421C78.7436 27.5183 78.432 26.5458 78.432 25.5034H82.2361C82.2898 26.4276 82.6391 27.1422 83.2838 27.6472C83.9286 28.1416 84.7829 28.3887 85.8468 28.3887C86.8784 28.3887 87.6628 28.1953 88.2001 27.8084C88.7374 27.4108 89.0061 26.895 89.0061 26.261ZM96.3757 22.1184C96.3757 20.4098 96.7142 18.8731 97.3912 17.5084C98.0682 16.1329 99.0192 15.0798 100.244 14.349C101.469 13.6076 102.877 13.2368 104.467 13.2368C106.821 13.2368 108.728 13.9944 110.19 15.5096C111.662 17.0248 112.457 19.0343 112.575 21.5381L112.591 22.4569C112.591 24.1763 112.258 25.713 111.592 27.067C110.937 28.421 109.991 29.4687 108.755 30.2102C107.53 30.9516 106.112 31.3224 104.5 31.3224C102.039 31.3224 100.067 30.5057 98.584 28.8723C97.1118 27.2281 96.3757 25.0413 96.3757 22.3118V22.1184ZM100.293 22.4569C100.293 24.2515 100.663 25.6592 101.405 26.6801C102.146 27.6902 103.178 28.1953 104.5 28.1953C105.821 28.1953 106.848 27.6795 107.578 26.6479C108.32 25.6162 108.691 24.1064 108.691 22.1184C108.691 20.3561 108.309 18.9591 107.546 17.9275C106.794 16.8958 105.768 16.38 104.467 16.38C103.189 16.38 102.173 16.8905 101.421 17.9113C100.669 18.9215 100.293 20.4367 100.293 22.4569Z" fill="white"/>
<path d="M113.227 8.98065H112.133V12H111.527V8.98065H110.442V8.48868H113.227V8.98065ZM114.605 8.48868L115.618 11.18L116.628 8.48868H117.417V12H116.809V10.8424L116.869 9.29416L115.832 12H115.396L114.361 9.29657L114.422 10.8424V12H113.814V8.48868H114.605Z" fill="white"/>
</svg>
