<svg width="22" height="22" viewBox="0 0 22 22" fill="none" xmlns="http://www.w3.org/2000/svg">
<g opacity="0.35">
<path d="M7.50933 14.3537C6.63081 14.3349 5.85026 13.9363 5.32593 13.3179C5.52335 13.2931 5.71915 13.2555 5.9121 13.2054C6.24698 13.1184 6.4775 12.8118 6.46807 12.466C6.45864 12.1201 6.21175 11.8265 5.87263 11.7579C4.8957 11.5603 4.0975 10.8798 3.73767 9.97411C3.96059 10.0177 4.18721 10.0443 4.41558 10.0533C4.74797 10.0664 5.04857 9.857 5.15145 9.54066C5.25433 9.22432 5.13443 8.87815 4.85793 8.69321C4.06934 8.16577 3.55507 7.27153 3.55507 6.25792L3.55506 6.2555C3.55458 6.10729 3.56548 5.95983 3.58742 5.81434C5.47397 7.66236 8.0197 8.83838 10.8255 8.98512C11.0552 8.99713 11.2776 8.90209 11.4276 8.72774C11.5776 8.55339 11.6384 8.31939 11.5923 8.09404C11.5445 7.86055 11.5172 7.62757 11.5172 7.40304C11.5172 5.7919 12.8193 4.48086 14.4372 4.48086L14.4388 4.48086C14.8386 4.47997 15.2343 4.56143 15.6012 4.72015C15.9681 4.87887 16.2984 5.11146 16.5715 5.40341C16.733 5.57606 16.9661 5.66073 17.1987 5.63404C17.0832 5.81762 17.0502 6.04828 17.1225 6.26517C17.2068 6.51786 17.4165 6.69978 17.6654 6.75543C17.664 6.75639 17.6627 6.75735 17.6614 6.75831C17.4559 6.90873 17.3418 7.15392 17.3589 7.40801C17.3677 7.53782 17.368 7.67174 17.368 7.83487C17.368 12.3601 13.9286 17.5182 7.68682 17.5182C6.7541 17.5182 5.85431 17.3876 5.00325 17.1434C6.08931 16.8603 7.08864 16.3575 7.95165 15.6816C8.19889 15.4879 8.29768 15.1597 8.19843 14.8618C8.09917 14.5638 7.82331 14.3604 7.50933 14.3537Z" stroke="white" stroke-width="1.48611" stroke-linejoin="round"/>
</g>
</svg>
