<svg width="44" height="19" viewBox="0 0 44 19" fill="none" xmlns="http://www.w3.org/2000/svg">
<path d="M11.8938 11.7663H11.8939C13.5411 11.7642 14.8763 10.4294 14.878 8.78184V8.78173C14.878 7.13373 13.5418 5.79749 11.8938 5.79749C10.2455 5.79749 8.90955 7.13374 8.90955 8.78173C8.90955 10.43 10.2454 11.7663 11.8938 11.7663ZM7.75039 8.78173C7.75039 6.49361 9.6053 4.63836 11.8937 4.63833C14.1809 4.64095 16.0346 6.49464 16.0372 8.78184C16.0371 11.0703 14.1822 12.9255 11.8938 12.9255C9.60534 12.9255 7.75039 11.0702 7.75039 8.78173Z" fill="#B99C66" stroke="#B99C66" stroke-width="0.2"/>
<path d="M31.26 11.7663H31.2601C32.9074 11.7642 34.2425 10.4294 34.2442 8.78184V8.78173C34.2442 7.13374 32.9083 5.79749 31.26 5.79749C29.612 5.79749 28.2758 7.13373 28.2758 8.78173C28.2758 10.4301 29.612 11.7663 31.26 11.7663ZM27.1166 8.78173C27.1166 6.49361 28.9715 4.63836 31.2599 4.63833C33.5475 4.64095 35.4011 6.49464 35.4034 8.78183C35.4033 11.0703 33.5484 12.9255 31.26 12.9255C28.9715 12.9255 27.1166 11.0702 27.1166 8.78173Z" fill="#B99C66" stroke="#B99C66" stroke-width="0.2"/>
<path d="M39.7905 5.11072V5.16072H39.8405H42.4383C42.7923 5.16072 43.1034 5.41995 43.1034 5.76209V12.7842C43.1034 13.1264 42.7923 13.3856 42.4383 13.3856H39.8405H39.7905V13.4356V14.1625C39.7865 15.4399 38.8621 16.5287 37.602 16.7404L37.6018 16.7404L28.9202 18.2257C27.9017 18.3995 26.8758 17.958 26.3024 17.0981L24.1478 13.8664C24.1478 13.8664 24.1478 13.8664 24.1478 13.8664C23.5768 13.0093 22.6148 12.4946 21.5847 12.4946C20.5546 12.4946 19.5926 13.0094 19.0212 13.8664L19.0628 13.8942L19.0212 13.8664L16.8676 17.0984L16.9092 17.1262L16.8676 17.0984C16.3831 17.8258 15.5672 18.2628 14.6933 18.2631C14.5471 18.2631 14.4013 18.2507 14.2576 18.2257L14.2574 18.2257L5.60106 16.7404C4.34836 16.5256 3.43651 15.434 3.44791 14.1631V14.1626V13.4356V13.3856H3.39791H0.715087C0.361145 13.3856 0.05 13.1264 0.05 12.7842V5.76209C0.05 5.41995 0.361145 5.16072 0.715087 5.16072H3.39791H3.44791V5.11072L3.44791 2.89876L3.4479 2.89824C3.44074 2.21286 3.70989 1.55348 4.19386 1.06821C4.67812 0.582968 5.33683 0.313166 6.02225 0.318699V0.318701H6.02266H37.1454C38.589 0.318701 39.7905 1.45829 39.7905 2.89876V5.11072ZM1.30916 12.0764V12.1264H1.35916H3.39791H3.44791V12.0764V6.46988V6.41988H3.39791H1.35916H1.30916V6.46988V12.0764ZM28.7151 16.9847L28.7151 16.9846L37.3888 15.4994C38.0439 15.3906 38.5258 14.8264 38.5313 14.1627V14.1623V12.9226C38.5313 12.8964 38.5273 12.8706 38.5239 12.8488L38.5236 12.8465C38.5199 12.8228 38.517 12.8032 38.517 12.7839C38.517 12.7646 38.5199 12.7449 38.5236 12.7213L38.5239 12.7189C38.5273 12.6972 38.5313 12.6715 38.5313 12.6455V5.90047C38.5313 5.87428 38.5273 5.84853 38.5239 5.8268L38.5236 5.82449C38.5199 5.80095 38.517 5.78137 38.517 5.76209C38.517 5.7428 38.5199 5.72303 38.5236 5.69936L38.524 5.69689C38.5273 5.67511 38.5313 5.64934 38.5313 5.62339V2.89876C38.5313 2.14756 37.8901 1.57786 37.1454 1.57786H6.02312C5.67153 1.57144 5.33207 1.70881 5.08366 1.95825C4.83563 2.20732 4.69929 2.54708 4.70707 2.89898V14.1622C4.69659 14.8195 5.16605 15.3867 5.81366 15.4994L5.81377 15.4994L14.4598 16.9846L14.4599 16.9847C14.9884 17.0749 15.5206 16.8458 15.818 16.4L15.7764 16.3723L15.818 16.4L17.9728 13.1683C18.7782 11.9611 20.1334 11.2358 21.585 11.2358C23.0363 11.2358 24.3918 11.9611 25.1972 13.1683L27.3534 16.4003L27.3534 16.4005C27.6528 16.8462 28.1856 17.0749 28.7151 16.9847ZM41.7942 12.1264H41.8442V12.0764V6.46988V6.41988H41.7942H39.8405H39.7905V6.46988V12.0764V12.1264H39.8405H41.7942Z" fill="black" stroke="white" stroke-width="0.1"/>
</svg>
