<svg width="23" height="22" viewBox="0 0 23 22" fill="none" xmlns="http://www.w3.org/2000/svg">
<g opacity="0.35">
<path d="M21.1807 10.9384C21.1807 10.8912 21.1807 10.8375 21.1785 10.7751C21.1764 10.6011 21.1721 10.4056 21.1678 10.1972C21.1506 9.5978 21.1205 9.00054 21.0732 8.43765C21.0088 7.66206 20.9143 7.01538 20.7854 6.52983C20.6493 6.02312 20.3827 5.56099 20.0121 5.18963C19.6415 4.81827 19.1799 4.55068 18.6734 4.41362C18.0654 4.25034 16.8752 4.14937 15.1994 4.08706C14.4023 4.05698 13.5494 4.03765 12.6965 4.0269C12.3979 4.02261 12.1207 4.02046 11.8715 4.01831H11.2398C10.9906 4.02046 10.7135 4.02261 10.4148 4.0269C9.56191 4.03765 8.70898 4.05698 7.91191 4.08706C6.23613 4.15151 5.04375 4.25249 4.43789 4.41362C3.93129 4.55035 3.46952 4.81782 3.09886 5.18923C2.7282 5.56065 2.46167 6.02296 2.32598 6.52983C2.19492 7.01538 2.10254 7.66206 2.03809 8.43765C1.99082 9.00054 1.96074 9.5978 1.94355 10.1972C1.93711 10.4056 1.93496 10.6011 1.93281 10.7751C1.93281 10.8375 1.93066 10.8912 1.93066 10.9384V11.0587C1.93066 11.106 1.93066 11.1597 1.93281 11.222C1.93496 11.396 1.93926 11.5916 1.94355 11.8C1.96074 12.3994 1.99082 12.9966 2.03809 13.5595C2.10254 14.3351 2.19707 14.9818 2.32598 15.4673C2.60098 16.4964 3.40879 17.3085 4.43789 17.5835C5.04375 17.7468 6.23613 17.8478 7.91191 17.9101C8.70898 17.9402 9.56191 17.9595 10.4148 17.9703C10.7135 17.9746 10.9906 17.9767 11.2398 17.9789H11.8715C12.1207 17.9767 12.3979 17.9746 12.6965 17.9703C13.5494 17.9595 14.4023 17.9402 15.1994 17.9101C16.8752 17.8457 18.0676 17.7447 18.6734 17.5835C19.7025 17.3085 20.5104 16.4986 20.7854 15.4673C20.9164 14.9818 21.0088 14.3351 21.0732 13.5595C21.1205 12.9966 21.1506 12.3994 21.1678 11.8C21.1742 11.5916 21.1764 11.396 21.1785 11.222C21.1785 11.1597 21.1807 11.106 21.1807 11.0587V10.9384V10.9384ZM19.6338 11.0501C19.6338 11.0953 19.6338 11.1447 19.6316 11.2027C19.6295 11.3703 19.6252 11.555 19.6209 11.7548C19.6059 12.3263 19.5758 12.8978 19.5307 13.4285C19.4727 14.1203 19.391 14.6875 19.29 15.0677C19.1568 15.564 18.7658 15.9572 18.2717 16.0882C17.8205 16.2085 16.684 16.3052 15.1393 16.3632C14.3572 16.3933 13.515 16.4126 12.675 16.4234C12.3807 16.4277 12.1078 16.4298 11.8629 16.4298H11.2484L10.4363 16.4234C9.59629 16.4126 8.75625 16.3933 7.97207 16.3632C6.42734 16.3031 5.28867 16.2085 4.83965 16.0882C4.34551 15.955 3.95449 15.564 3.82129 15.0677C3.72031 14.6875 3.63867 14.1203 3.58066 13.4285C3.53555 12.8978 3.50762 12.3263 3.49043 11.7548C3.48398 11.555 3.48184 11.3681 3.47969 11.2027C3.47969 11.1447 3.47754 11.0931 3.47754 11.0501V10.947C3.47754 10.9019 3.47754 10.8525 3.47969 10.7945C3.48184 10.6269 3.48613 10.4421 3.49043 10.2423C3.50547 9.67085 3.53555 9.09936 3.58066 8.5687C3.63867 7.8769 3.72031 7.30972 3.82129 6.92944C3.95449 6.43315 4.34551 6.03999 4.83965 5.90894C5.29082 5.78862 6.42734 5.69194 7.97207 5.63394C8.7541 5.60386 9.59629 5.58452 10.4363 5.57378C10.7307 5.56948 11.0035 5.56733 11.2484 5.56733H11.8629L12.675 5.57378C13.515 5.58452 14.3551 5.60386 15.1393 5.63394C16.684 5.69409 17.8227 5.78862 18.2717 5.90894C18.7658 6.04214 19.1568 6.43315 19.29 6.92944C19.391 7.30972 19.4727 7.8769 19.5307 8.5687C19.5758 9.09936 19.6037 9.67085 19.6209 10.2423C19.6273 10.4421 19.6295 10.6291 19.6316 10.7945C19.6316 10.8525 19.6338 10.9041 19.6338 10.947V11.0501ZM9.64356 13.8775L14.6279 10.9771L9.64356 8.11968V13.8775Z" fill="white"/>
</g>
</svg>
